<?xml version="1.0" encoding="iso-8859-1"?>
<!-- Generator: Adobe Illustrator 18.0.0, SVG Export Plug-In . SVG Version: 6.00 Build 0)  -->

<svg version="1.1" id="Capa_1" xmlns="http://www.w3.org/2000/svg" xmlns:xlink="http://www.w3.org/1999/xlink" x="0px" y="0px" viewBox="0 0 460 460" style="enable-background:new 0 0 460 460;" xml:space="preserve">
	<g id="XMLID_88_">
		<path id="XMLID_1327_" d="M81.558,149.757H58.766c-4.133,0-7.484,3.351-7.484,7.484s3.351,7.484,7.484,7.484h22.792
		c4.133,0,7.484-3.351,7.484-7.484S85.691,149.757,81.558,149.757z" />
		<path id="XMLID_1907_" d="M81.558,274.287H58.766c-4.133,0-7.484,3.351-7.484,7.484c0,4.133,3.351,7.484,7.484,7.484h22.792
		c4.133,0,7.484-3.351,7.484-7.484C89.041,277.638,85.691,274.287,81.558,274.287z" />
		<path id="XMLID_1908_" d="M81.558,397.013H58.766c-4.133,0-7.484,3.351-7.484,7.484c0,4.133,3.351,7.484,7.484,7.484h22.792
		c4.133,0,7.484-3.351,7.484-7.484C89.041,400.364,85.691,397.013,81.558,397.013z" />
		<path id="XMLID_1911_" d="M379.609,351.626H34.219C15.35,351.626,0,366.976,0,385.844v37.306c0,18.868,15.35,34.218,34.219,34.218
		h345.391c18.868,0,34.219-15.35,34.219-34.218v-37.306C413.828,366.976,398.478,351.626,379.609,351.626z M398.86,423.15
		c0,10.615-8.636,19.251-19.251,19.251H34.219c-10.615,0-19.251-8.636-19.251-19.251v-37.306c0-10.615,8.636-19.251,19.251-19.251
		h345.391c10.615,0,19.251,8.636,19.251,19.251V423.15z" />
		<path id="XMLID_1914_" d="M452.516,139.108h-26.778V95.77c0-51.357-41.781-93.138-93.138-93.138s-93.138,41.781-93.138,93.138v8.6
		H34.219C15.35,104.37,0,119.72,0,138.588v37.306c0,18.868,15.35,34.219,34.219,34.219H205.2v18.787H34.219
		C15.35,228.899,0,244.25,0,263.118v37.306c0,18.868,15.35,34.219,34.219,34.219h345.391c18.868,0,34.219-15.35,34.219-34.219
		v-7.017h8.817c20.598,0,37.355-16.758,37.355-37.355V146.591C460,142.458,456.649,139.108,452.516,139.108z M332.6,17.599
		c43.103,0,78.17,35.067,78.17,78.17v43.338h-22.689V99.022c0-30.592-24.889-55.481-55.481-55.481
		c-30.593,0-55.481,24.889-55.481,55.481v40.086h-22.689V95.77C254.429,52.667,289.497,17.599,332.6,17.599z M373.114,139.108
		h-81.027V99.022c0-22.339,18.174-40.513,40.514-40.513c22.339,0,40.513,18.174,40.513,40.513V139.108z M34.219,195.145
		c-10.615,0-19.251-8.636-19.251-19.251v-37.306c0-10.615,8.636-19.251,19.251-19.251h205.243v19.77h-26.778
		c-4.133,0-7.484,3.351-7.484,7.484v48.553H34.219z M398.86,300.424c0,10.615-8.636,19.251-19.251,19.251H34.219
		c-10.615,0-19.251-8.636-19.251-19.251v-37.306c0-10.615,8.636-19.251,19.251-19.251H205.2v12.184
		c0,20.598,16.758,37.355,37.355,37.355H398.86V300.424z M445.033,256.051c0,12.345-10.043,22.388-22.388,22.388H242.556
		c-12.345,0-22.388-10.043-22.388-22.388V154.075h224.865V256.051z" />
		<path id="XMLID_1982_" d="M332.6,191.642c-4.133,0-7.484,3.351-7.484,7.484v34.261c0,4.133,3.351,7.484,7.484,7.484
		c4.133,0,7.484-3.351,7.484-7.484v-34.261C340.084,194.993,336.733,191.642,332.6,191.642z" />
	</g>
	<g></g>
	<g></g>
	<g></g>
	<g></g>
	<g></g>
	<g></g>
	<g></g>
	<g></g>
	<g></g>
	<g></g>
	<g></g>
	<g></g>
	<g></g>
	<g></g>
	<g></g>
</svg>