<?xml version="1.0" encoding="iso-8859-1"?>
<!-- Generator: Adobe Illustrator 19.0.0, SVG Export Plug-In . SVG Version: 6.00 Build 0)  -->
<svg version="1.1" id="Layer_1" xmlns="http://www.w3.org/2000/svg" xmlns:xlink="http://www.w3.org/1999/xlink" x="0px" y="0px"
	 viewBox="0 0 512 512" style="enable-background:new 0 0 512 512;" xml:space="preserve">
<g>
	<g>
		<g>
			<path d="M501.23,106.623H266.24l-30.986-58.259c-1.87-3.516-5.527-5.714-9.509-5.714H10.77C4.823,42.65,0,47.473,0,53.42v405.16
				c0,5.946,4.823,10.77,10.77,10.77h490.46c5.947,0,10.77-4.824,10.77-10.77V117.393C512,111.446,507.177,106.623,501.23,106.623z
				 M21.54,447.811V64.191h197.734l30.986,58.26c1.87,3.515,5.527,5.712,9.509,5.712h230.69v319.647H21.54z"/>
			<path d="M163.34,106.842h0.255c5.948,0,10.77-4.822,10.77-10.77c0-5.947-4.822-10.77-10.77-10.77h-0.255
				c-5.947,0-10.77,4.823-10.77,10.77C152.57,102.021,157.393,106.842,163.34,106.842z"/>
			<path d="M132.711,85.299H53.417c-5.947,0-10.77,4.823-10.77,10.77c0,5.948,4.823,10.77,10.77,10.77h79.294
				c5.947,0,10.77-4.822,10.77-10.77C143.481,90.122,138.658,85.299,132.711,85.299z"/>
			<path d="M358.173,202.366c-32.76-8.975-67.102-23.54-96.698-41.013c-3.378-1.994-7.572-1.994-10.951,0
				c-30.889,18.236-62.52,31.651-96.697,41.013c-4.681,1.282-7.925,5.536-7.925,10.388v52.666c0,56.184,25.936,93.39,47.693,114.708
				c25.059,24.552,52.051,35.989,62.405,35.989s37.347-11.437,62.405-35.989c21.756-21.318,47.693-58.524,47.693-114.708v-52.666
				C366.097,207.902,362.852,203.649,358.173,202.366z M344.558,265.42c0,48.076-21.891,80.024-40.255,98.359
				c-21.746,21.712-43.863,30.273-48.303,30.787c-4.44-0.514-26.557-9.075-48.303-30.787
				c-18.364-18.335-40.255-50.283-40.255-98.359v-44.532c31.039-9.147,60.141-21.571,88.562-37.809
				c27.799,15.83,58.146,28.782,88.555,37.802V265.42z"/>
			<path d="M210.851,280.607c-4.207-4.206-11.024-4.206-15.232,0c-4.206,4.206-4.206,11.025,0,15.231l35.021,35.021
				c2.103,2.103,4.859,3.155,7.615,3.155s5.512-1.051,7.615-3.155l70.513-70.512c4.206-4.206,4.206-11.025,0-15.232
				c-4.206-4.206-11.023-4.205-15.232,0l-62.897,62.897L210.851,280.607z"/>
			<path d="M380.647,405.166h-0.256c-5.947,0-10.77,4.822-10.77,10.77c0,5.947,4.823,10.77,10.77,10.77h0.256
				c5.947,0,10.77-4.824,10.77-10.77C391.417,409.988,386.594,405.166,380.647,405.166z"/>
			<path d="M458.579,405.164h-47.302c-5.948,0-10.77,4.822-10.77,10.77c0,5.947,4.823,10.77,10.77,10.77h47.302
				c5.947,0,10.77-4.823,10.77-10.77C469.349,409.986,464.526,405.164,458.579,405.164z"/>
		</g>
	</g>
</g>
<g>
</g>
<g>
</g>
<g>
</g>
<g>
</g>
<g>
</g>
<g>
</g>
<g>
</g>
<g>
</g>
<g>
</g>
<g>
</g>
<g>
</g>
<g>
</g>
<g>
</g>
<g>
</g>
<g>
</g>
</svg>
